# xmcd
#
# Track frame offsets:
# 150
# 14897
# 35332
# 50132
# 66411
# 81522
# 103319
# 118291
# 136713
# 151192
# 163625
# 184197
# 197047
# 210088
# 226975
#
# Disc length: 3225 seconds
#
#
# Revision: 2
# Processed by: cddbd v1.5.1PL0 Copyright (c) Steve Scherf et al.
# Submitted via: FreeRIP 2.91 
#
DISCID=d60c970f
DTITLE=John Williamson - Wandering Australia
DYEAR=1999
DGENRE=Country
TTITLE0=Mallee Boy
TTITLE1=Tubbo Station
TTITLE2=At lightning Ridge
TTITLE3=Hawkesbury River Lovin'
TTITLE4=You come back to Tassie
TTITLE5=Coober Pedy
TTITLE6=Sail the Nullarbor
TTITLE7=Welcome all to Broome
TTITLE8=Amazing Day
TTITLE9=Station Cook
TTITLE10=Ancient Mountains
TTITLE11=Alice Springs
TTITLE12=Back at the Isa
TTITLE13=Springbrook
TTITLE14=Papa Whiskey November
EXTD=YEAR: 1999  ID3G:   2
EXTT0=
EXTT1=
EXTT2=
EXTT3=
EXTT4=
EXTT5=
EXTT6=
EXTT7=
EXTT8=
EXTT9=
EXTT10=
EXTT11=
EXTT12=
EXTT13=
EXTT14=
PLAYORDER=
